HIERARCHY
ROOT Hips
{
 OFFSET 0.000000 0.000000 0.000000
 CHANNELS 6 Xposition Yposition Zposition Yrotation Xrotation Zrotation
 JOINT Chest
 {
  OFFSET 0.000000 9.585900 0.002600
  CHANNELS 3 Yrotation Xrotation Zrotation
  JOINT Chest2
  {
   OFFSET 0.000000 9.601200 -0.005300
   CHANNELS 3 Yrotation Xrotation Zrotation
   JOINT Chest3
   {
    OFFSET 0.000000 9.561800 0.000000
    CHANNELS 3 Yrotation Xrotation Zrotation
    JOINT Chest4
    {
     OFFSET 0.000000 9.552100 0.000000
     CHANNELS 3 Yrotation Xrotation Zrotation
     JOINT Neck
     {
      OFFSET 0.000000 14.453000 0.000000
      CHANNELS 3 Yrotation Xrotation Zrotation
      JOINT Head
      {
       OFFSET 0.000000 8.936500 -0.011300
       CHANNELS 3 Yrotation Xrotation Zrotation
       End Site
       {
        OFFSET 0.000000 17.073600 -0.006000
       }
      }
     }
     JOINT RightCollar
     {
      OFFSET -2.921100 9.558500 0.000000
      CHANNELS 3 Yrotation Xrotation Zrotation
      JOINT RightShoulder
      {
       OFFSET -13.519700 0.000000 0.000000
       CHANNELS 3 Yrotation Xrotation Zrotation
       JOINT RightElbow
       {
        OFFSET 0.000000 -29.696600 0.000000
        CHANNELS 3 Yrotation Xrotation Zrotation
        JOINT RightWrist
        {
         OFFSET 0.000000 -24.004700 0.000000
         CHANNELS 3 Yrotation Xrotation Zrotation
         End Site
         {
          OFFSET 0.000000 -17.728500 0.000000
         }
        }
       }
      }
     }
     JOINT LeftCollar
     {
      OFFSET 2.921100 9.558500 0.000000
      CHANNELS 3 Yrotation Xrotation Zrotation
      JOINT LeftShoulder
      {
       OFFSET 13.519700 0.000000 0.000000
       CHANNELS 3 Yrotation Xrotation Zrotation
       JOINT LeftElbow
       {
        OFFSET 0.000000 -29.696600 0.000000
        CHANNELS 3 Yrotation Xrotation Zrotation
        JOINT LeftWrist
        {
         OFFSET 0.000000 -24.004700 0.000000
         CHANNELS 3 Yrotation Xrotation Zrotation
         End Site
         {
          OFFSET 0.000000 -17.728500 0.000000
         }
        }
       }
      }
     }
    }
   }
  }
 }
 JOINT RightHip
 {
  OFFSET -7.771700 -0.012900 -0.001300
  CHANNELS 3 Yrotation Xrotation Zrotation
  JOINT RightKnee
  {
   OFFSET 0.000000 -40.869800 0.001200
   CHANNELS 3 Yrotation Xrotation Zrotation
   JOINT RightAnkle
   {
    OFFSET 0.000000 -39.717900 0.002100
    CHANNELS 3 Yrotation Xrotation Zrotation
    JOINT RightToe
    {
     OFFSET 0.000000 -4.965400 11.033500
     CHANNELS 3 Yrotation Xrotation Zrotation
     End Site
     {
      OFFSET 0.000000 -1.423100 5.872300
     }
    }
   }
  }
 }
 JOINT LeftHip
 {
  OFFSET 7.771700 -0.012900 -0.001300
  CHANNELS 3 Yrotation Xrotation Zrotation
  JOINT LeftKnee
  {
   OFFSET 0.000000 -40.869800 0.001200
   CHANNELS 3 Yrotation Xrotation Zrotation
   JOINT LeftAnkle
   {
    OFFSET 0.000000 -39.717900 0.002100
    CHANNELS 3 Yrotation Xrotation Zrotation
    JOINT LeftToe
    {
     OFFSET 0.000000 -4.965400 11.033500
     CHANNELS 3 Yrotation Xrotation Zrotation
     End Site
     {
      OFFSET 0.000000 -1.423100 5.872300
     }
    }
   }
  }
 }
}
MOTION
Frames: 9
Frame Time: 0.008333
-200.306011 58.046350 28.002923 172.093544 -50.117419 -3.367588 5.147347 22.447321 3.566051 2.663483 12.874767 1.816670 3.417215 16.078451 2.382629 2.663530 12.874821 1.816591 -0.162838 15.949466 2.838532 -1.311731 -6.135098 5.349307 1.831212 4.132204 0.282861 2.636250 -14.131471 -11.094485 -124.973086 -65.890328 157.152173 26.678936 25.578654 6.718278 -10.468749 0.818129 -1.377987 -1.857086 -10.602196 16.715271 74.395481 -57.439086 -120.915098 -0.513756 1.461037 7.059998 3.795973 -22.364426 0.149223 -36.619815 73.325361 -37.946683 5.915250 -12.498485 9.173004 0.019048 -0.144141 0.012429 -2.911531 -20.882979 11.750443 53.399511 79.285447 53.005970 4.673109 -15.826450 -16.815876 0.043572 0.106938 0.019283
-200.305252 58.047410 28.002178 172.091464 -50.108856 -3.366695 5.150948 22.451058 3.566362 2.662565 12.873417 1.814246 3.415934 16.076789 2.379518 2.662582 12.873422 1.814172 -0.132061 15.927377 2.840595 -1.260127 -6.179191 5.343004 1.836616 4.130673 0.285645 2.638079 -14.124595 -11.092455 -124.978322 -65.894184 157.155464 26.660647 25.613924 6.682759 -10.467675 0.813613 -1.371327 -1.852873 -10.588929 16.713387 74.388983 -57.437906 -120.914922 -0.503391 1.465029 7.086977 3.799125 -22.371458 0.151118 -36.586810 73.331121 -37.916048 5.901801 -12.497194 9.176052 0.015069 -0.145141 0.010693 -2.913499 -20.888159 11.755026 53.372048 79.293627 52.976948 4.676393 -15.831715 -16.817419 0.045263 0.110199 0.020270
-200.304553 58.048179 28.001589 172.095876 -50.096983 -3.370362 5.150967 22.449632 3.564324 2.662542 12.872998 1.812910 3.415803 16.076385 2.377947 2.660704 12.882569 1.806635 -0.095813 15.896225 2.849879 -1.200056 -6.220428 5.337704 1.845667 4.121983 0.287809 2.635646 -14.122099 -11.082302 -124.985783 -65.899099 157.160870 26.659829 25.608802 6.671970 -10.473587 0.807027 -1.363949 -1.844820 -10.583983 16.720918 74.379747 -57.438488 -120.912137 -0.495268 1.466847 7.112833 3.797594 -22.381333 0.151995 -36.572656 73.337641 -37.901684 5.892743 -12.501923 9.175967 0.015060 -0.143798 0.010068 -2.918923 -20.900118 11.759912 53.366672 79.300542 52.970817 4.674544 -15.832084 -16.819316 0.047322 0.107947 0.022434
-200.304301 58.048322 28.001375 172.099492 -50.079822 -3.371187 5.147587 22.459258 3.555735 2.664731 12.857806 1.814736 3.415855 16.075102 2.376096 2.658141 12.880972 1.801190 -0.055699 15.875482 2.854775 -1.128081 -6.260578 5.333141 1.860458 4.124341 0.282764 2.628015 -14.119440 -11.066489 -124.959380 -65.917300 157.131289 26.655601 25.599526 6.656208 -10.485914 0.808105 -1.364546 -1.835480 -10.579654 16.729918 74.385156 -57.442725 -120.915478 -0.465914 1.489417 7.171045 3.796346 -22.394463 0.147092 -36.558651 73.335782 -37.887992 5.901909 -12.506813 9.177512 0.007165 -0.139839 0.007561 -2.923164 -20.917263 11.760497 53.344152 79.300471 52.950343 4.668585 -15.826794 -16.821772 0.051587 0.105865 0.024195
-200.303364 58.049007 28.000811 172.096303 -50.066703 -3.371010 5.150420 22.455775 3.555178 2.663189 12.870650 1.805437 3.415776 16.070312 2.369263 2.662700 12.868178 1.806136 -0.008601 15.855190 2.861448 -1.043688 -6.300084 5.329284 1.879028 4.135308 0.272809 2.616618 -14.122384 -11.045188 -124.915337 -65.957543 157.098362 26.634594 25.578841 6.612434 -10.484173 0.804738 -1.356202 -1.833924 -10.566650 16.727989 74.391783 -57.450258 -120.923201 -0.457060 1.495595 7.202108 3.800214 -22.406772 0.151400 -36.562472 73.332493 -37.890361 5.901572 -12.505209 9.177421 0.011923 -0.140102 0.008341 -2.922261 -20.928940 11.763264 53.350900 79.296738 52.956154 4.678558 -15.826939 -16.824305 0.052296 0.109530 0.024398
-200.302713 58.049828 28.000048 172.098021 -50.054615 -3.373482 5.149432 22.446851 3.555054 2.664520 12.875243 1.800359 3.415304 16.065418 2.371145 2.661992 12.867575 1.799185 0.018586 15.844661 2.871129 -0.921217 -6.345864 5.319342 1.883380 4.139167 0.276868 2.620793 -14.114634 -11.039078 -124.940679 -65.957190 157.119346 26.622806 25.624631 6.593937 -10.496602 0.809870 -1.351910 -1.818285 -10.540151 16.726140 74.424442 -57.460249 -120.960157 -0.455146 1.501479 7.231918 3.799018 -22.417878 0.152894 -36.556928 73.332796 -37.883611 5.900444 -12.505368 9.176122 0.015324 -0.140897 0.007238 -2.923452 -20.943255 11.769193 53.353938 79.300496 52.960047 4.671468 -15.823411 -16.825646 0.051211 0.105366 0.026923
-200.302583 58.050251 27.999476 172.102360 -50.039984 -3.375994 5.148384 22.442485 3.550750 2.665353 12.869712 1.796998 3.415245 16.062680 2.374646 2.662507 12.863307 1.790249 0.047008 15.837825 2.883829 -0.782522 -6.390132 5.311965 1.888705 4.150405 0.274075 2.620449 -14.111588 -11.025081 -124.925850 -65.970897 157.109459 26.618988 25.629856 6.564954 -10.515230 0.816164 -1.357243 -1.801500 -10.535716 16.740855 74.413525 -57.465938 -120.954055 -0.447821 1.502733 7.260816 3.796929 -22.430666 0.153146 -36.554732 73.332950 -37.882602 5.901236 -12.508772 9.175332 0.014483 -0.140016 0.008170 -2.926946 -20.958787 11.770609 53.378989 79.297616 52.983346 4.668599 -15.824110 -16.825704 0.048164 0.107259 0.025794
-200.302355 58.050788 27.998817 172.106332 -50.026676 -3.379807 5.148056 22.436994 3.545523 2.666986 12.863525 1.798596 3.414401 16.062297 2.367717 2.666695 12.855839 1.790583 0.103947 15.824148 2.894130 -0.658476 -6.421954 5.319806 1.891056 4.163825 0.272676 2.623089 -14.106221 -11.015788 -124.883921 -66.002730 157.085380 26.611328 25.618109 6.515138 -10.522921 0.824327 -1.355038 -1.794885 -10.530898 16.745931 74.401794 -57.472568 -120.956884 -0.441056 1.505592 7.295750 3.797144 -22.442185 0.155761 -36.564606 73.331339 -37.893180 5.906742 -12.512999 9.176613 0.014497 -0.139336 0.008732 -2.930185 -20.973203 11.772898 53.390804 79.299256 52.995440 4.670727 -15.824446 -16.825735 0.045845 0.107021 0.024978
-200.302651 58.050791 27.998448 172.108994 -50.010194 -3.380829 5.148590 22.426146 3.542254 2.664991 12.858178 1.799528 3.418319 16.057903 2.360966 2.665492 12.856279 1.795235 0.240019 15.789095 2.910745 -0.600779 -6.431549 5.341577 1.907880 4.187173 0.240613 2.600860 -14.120637 -10.980086 -124.882551 -66.019975 157.089042 26.603891 25.623478 6.491383 -10.525644 0.829001 -1.359912 -1.796164 -10.519528 16.749153 74.411602 -57.480219 -120.969364 -0.440194 1.508815 7.310258 3.797211 -22.458327 0.154735 -36.573332 73.330869 -37.902119 5.912039 -12.514712 9.175731 0.016289 -0.140012 0.010025 -2.930611 -20.991864 11.776839 53.384772 79.303435 52.987113 4.672456 -15.823436 -16.824262 0.044555 0.105954 0.025759
